<?xml version="1.0" standalone="no"?>
<!DOCTYPE svg PUBLIC "-//W3C//DTD SVG 20010904//EN"
 "http://www.w3.org/TR/2001/REC-SVG-20010904/DTD/svg10.dtd">
<svg version="1.0" xmlns="http://www.w3.org/2000/svg"
 width="320.000000pt" height="180.000000pt" viewBox="0 0 320.000000 180.000000"
 preserveAspectRatio="xMidYMid meet">

<g transform="translate(0.000000,180.000000) scale(0.100000,-0.100000)"
fill="#000000" stroke="none">
<path d="M7 1793 c-4 -3 -7 -25 -7 -48 0 -40 2 -42 41 -55 22 -8 42 -17 45
-22 3 -5 -11 -2 -31 6 -21 9 -41 16 -46 16 -5 0 -9 -29 -9 -65 0 -62 1 -66 28
-75 15 -6 36 -15 47 -20 l20 -11 -20 6 c-11 4 -32 9 -48 12 l-27 6 0 -107 c0
-77 4 -108 13 -110 6 -2 28 -9 47 -15 34 -10 33 -10 -13 -5 l-48 5 2 -140 c1
-114 4 -141 15 -141 8 0 14 -9 14 -20 0 -11 -4 -20 -10 -20 -5 0 -7 7 -4 15 4
8 1 15 -4 15 -7 0 -11 -62 -12 -184 0 -168 1 -185 17 -189 16 -4 16 -5 1 -6
-16 -1 -17 -22 -17 -241 0 -178 3 -240 12 -240 9 0 9 -2 0 -8 -8 -5 -12 -34
-12 -80 l0 -72 399 0 399 0 4 23 c4 21 4 21 6 1 1 -21 6 -22 100 -23 l100 -1
4 27 4 28 2 -27 c2 -46 20 -31 24 20 l3 47 2 -47 c1 -27 7 -48 12 -48 6 0 10
122 10 345 0 223 4 345 10 345 6 0 10 -122 10 -345 0 -228 3 -345 10 -345 12
0 12 435 0 760 -6 179 -7 184 -8 68 -1 -89 -6 -128 -14 -128 -8 0 -9 35 -5
131 3 72 8 133 10 135 2 3 12 2 21 -2 14 -6 16 -50 16 -485 0 -419 2 -479 15
-479 13 0 15 59 15 470 0 338 3 470 11 470 8 0 10 -130 8 -470 -2 -259 -1
-470 3 -470 5 0 8 23 8 50 0 28 5 50 10 50 6 0 10 -22 10 -50 0 -28 5 -50 10
-50 7 0 10 139 9 433 0 237 3 430 8 427 11 -7 11 -4 12 -457 1 -244 5 -403 10
-403 6 0 8 149 4 390 -5 292 -3 390 5 390 9 0 12 -102 12 -390 0 -253 4 -390
10 -390 7 0 10 165 11 473 1 259 5 452 9 427 4 -25 9 -236 9 -469 1 -234 4
-427 6 -430 3 -2 5 154 5 347 0 228 4 352 10 352 6 0 10 -123 10 -350 0 -233
3 -350 10 -350 7 0 8 85 4 264 -5 193 -4 265 5 270 8 5 11 -63 11 -263 0 -180
3 -271 10 -271 7 0 10 128 10 392 -1 304 1 393 11 397 10 3 11 -80 6 -393 -3
-244 -2 -396 4 -396 10 0 10 28 13 557 0 194 -2 353 -5 353 -3 0 -4 11 -1 25
2 14 8 25 13 25 5 0 9 -209 9 -480 0 -313 3 -480 10 -480 7 0 10 170 10 491 0
324 3 488 10 484 6 -4 10 -178 10 -491 0 -331 3 -484 10 -484 8 0 9 152 4 493
-5 358 -4 499 4 513 9 14 11 -110 12 -493 0 -335 3 -513 10 -513 7 0 10 182
10 525 0 343 3 525 10 525 6 0 10 -40 10 -99 0 -86 2 -99 18 -103 15 -4 17 1
14 44 -3 40 -1 48 14 48 16 0 17 -26 11 -470 -6 -428 -5 -470 9 -470 15 0 16
41 13 434 -2 239 -1 438 3 442 5 4 8 -191 8 -434 0 -381 2 -442 15 -442 12 0
13 58 8 438 -5 328 -3 441 5 446 9 5 12 -103 12 -438 0 -291 3 -446 10 -446 7
0 10 188 10 545 0 357 3 545 10 545 6 0 10 -11 10 -25 0 -14 5 -25 10 -25 6 0
10 -9 10 -20 0 -11 -4 -20 -10 -20 -7 0 -10 -173 -10 -500 l0 -500 21 0 21 0
-6 787 c-6 682 -8 787 -21 789 -13 2 -15 -20 -15 -137 0 -86 -4 -139 -10 -139
-6 0 -10 90 -10 250 0 160 -4 250 -10 250 -6 0 -10 -90 -10 -250 0 -160 -4
-250 -10 -250 -6 0 -10 90 -10 250 0 160 -4 250 -10 250 -6 0 -10 -90 -10
-250 0 -137 -3 -250 -7 -250 -5 0 -7 112 -5 250 2 170 0 250 -8 250 -7 0 -10
-82 -10 -248 0 -220 -2 -249 -16 -249 -14 0 -15 20 -12 163 3 150 2 162 -14
161 -16 -1 -18 -15 -18 -134 0 -82 -4 -133 -10 -133 -6 0 -10 80 -10 220 0
140 -4 220 -10 220 -6 0 -10 -80 -10 -220 0 -140 -4 -220 -10 -220 -6 0 -11
82 -12 223 -2 247 -7 219 -10 -63 -2 -102 -7 -184 -12 -182 -4 1 -8 106 -7
232 2 156 -1 230 -8 230 -8 0 -11 -71 -11 -215 0 -137 -4 -215 -10 -215 -6 0
-11 80 -11 218 -1 119 -4 204 -6 187 -7 -46 -23 -55 -23 -12 0 20 -4 37 -10
37 -6 0 -10 -63 -10 -170 0 -108 -4 -170 -10 -170 -7 0 -10 60 -9 166 0 91 -2
169 -5 172 -3 3 -6 -88 -6 -201 0 -131 -4 -207 -10 -207 -6 0 -10 75 -10 205
l0 205 -25 0 -25 0 -1 -202 c-1 -112 -1 -208 0 -215 1 -6 -3 -14 -9 -18 -7 -4
-11 67 -12 217 l-3 223 -2 -185 c-2 -102 -8 -189 -13 -194 -7 -7 -10 57 -10
182 0 121 -4 192 -10 192 -5 0 -10 -18 -10 -40 0 -50 -15 -53 -18 -3 -2 21 -5
39 -7 42 -3 2 -5 -80 -5 -182 0 -118 -4 -187 -10 -187 -6 0 -10 68 -10 185 0
158 -2 185 -15 185 -13 0 -15 -28 -15 -190 0 -117 -4 -190 -10 -190 -6 0 -9
72 -9 186 0 103 -3 189 -6 192 -3 3 -5 -36 -5 -86 0 -55 -4 -92 -10 -92 -6 0
-11 38 -11 93 -1 50 -4 82 -6 70 -5 -28 -23 -30 -23 -3 0 11 -4 20 -10 20 -5
0 -9 -18 -8 -40 1 -22 -2 -43 -5 -47 -4 -3 -7 15 -7 40 0 26 -4 47 -10 47 -6
0 -10 -74 -10 -202 0 -111 -3 -198 -6 -195 -4 3 -6 94 -5 202 2 132 -1 195 -8
195 -8 0 -11 -66 -11 -200 0 -124 -4 -200 -10 -200 -6 0 -11 79 -13 203 l-2
202 -3 -207 c-3 -278 -21 -278 -25 0 l-2 207 -3 -218 c-1 -142 -5 -216 -12
-212 -6 4 -11 90 -12 218 -2 194 -3 201 -8 87 -7 -152 -14 -147 -10 8 1 76 -2
112 -9 112 -14 0 -16 -526 -2 -534 5 -4 8 -14 7 -24 -2 -10 5 -20 18 -24 20
-6 20 -6 -3 -7 -16 -1 -21 -5 -17 -16 9 -23 -37 -19 -52 5 -7 12 -10 25 -7 30
4 6 -1 13 -9 16 -10 4 -16 19 -17 38 0 24 -2 27 -8 12 -16 -42 -21 19 -21 260
l0 245 -230 -2 c-166 -1 -230 -4 -230 -12 0 -9 -2 -9 -8 0 -5 8 -44 11 -117
11 -73 0 -112 -3 -117 -11 -6 -9 -8 -9 -8 1 0 13 -13 16 -23 5z m1302 -185 c0
-95 -4 -193 -8 -218 -6 -30 -9 29 -10 173 -1 139 3 217 9 217 6 0 10 -64 9
-172z m-249 -23 c0 -103 -4 -165 -10 -165 -6 0 -10 62 -10 165 0 103 4 165 10
165 6 0 10 -62 10 -165z m-737 105 c-7 -28 -13 -25 -13 6 0 14 4 23 9 20 5 -3
7 -15 4 -26z m1087 -150 c0 -113 -4 -180 -10 -180 -6 0 -10 67 -10 180 0 113
4 180 10 180 6 0 10 -67 10 -180z m-210 30 c0 -87 -4 -140 -10 -140 -6 0 -10
48 -10 124 0 112 5 156 16 156 2 0 4 -63 4 -140z m-183 -82 c-1 -40 -3 -8 -3
72 0 80 2 112 3 73 2 -40 2 -106 0 -145z m-740 167 c0 -8 -4 -12 -9 -9 -5 3
-6 10 -3 15 9 13 12 11 12 -6z m450 -247 c-1 -40 -3 -8 -3 72 0 80 2 112 3 73
2 -40 2 -106 0 -145z m363 107 c0 -57 -4 -95 -10 -95 -6 0 -10 38 -10 95 0 57
4 95 10 95 6 0 10 -38 10 -95z m-1015 45 c13 -6 15 -9 5 -9 -8 0 -22 4 -30 9
-18 12 -2 12 25 0z m798 -219 c-10 -15 -14 19 -14 100 0 130 4 133 10 9 4 -58
5 -107 4 -109z m-733 173 c0 -2 -7 -4 -15 -4 -8 0 -15 4 -15 10 0 5 7 7 15 4
8 -4 15 -8 15 -10z m177 -16 c-3 -8 -6 -5 -6 6 -1 11 2 17 5 13 3 -3 4 -12 1
-19z m1053 -103 c0 -14 -4 -25 -8 -25 -4 0 -9 11 -10 25 -1 14 3 25 8 25 6 0
10 -11 10 -25z m197 -7 c-3 -7 -5 -2 -5 12 0 14 2 19 5 13 2 -7 2 -19 0 -25z
m-197 -43 c0 -8 -4 -15 -8 -15 -5 0 -9 7 -9 15 0 8 4 15 9 15 4 0 8 -7 8 -15z
m187 -11 c-3 -3 -12 -4 -19 -1 -8 3 -5 6 6 6 11 1 17 -2 13 -5z m0 -30 c-3 -3
-12 -4 -19 -1 -8 3 -5 6 6 6 11 1 17 -2 13 -5z m0 -30 c-3 -3 -12 -4 -19 -1
-8 3 -5 6 6 6 11 1 17 -2 13 -5z m170 0 c-3 -3 -12 -4 -19 -1 -8 3 -5 6 6 6
11 1 17 -2 13 -5z m-517 -16 c0 6 4 12 10 12 5 0 7 -6 4 -14 -6 -15 -64 -19
-64 -5 0 12 34 16 42 4 5 -6 8 -6 8 3z m40 -13 c-7 -9 -15 -13 -17 -11 -7 7 7
26 19 26 6 0 6 -6 -2 -15z m24 -9 c-3 -9 -10 -16 -15 -16 -5 0 -4 9 3 20 14
22 21 20 12 -4z m286 14 c0 -5 -4 -10 -10 -10 -5 0 -10 5 -10 10 0 6 5 10 10
10 6 0 10 -4 10 -10z m-1496 -39 c4 -5 -3 -7 -14 -4 -23 6 -26 13 -6 13 8 0
17 -4 20 -9z m229 2 c-7 -2 -19 -2 -25 0 -7 3 -2 5 12 5 14 0 19 -2 13 -5z
m-186 -9 c-3 -3 -12 -4 -19 -1 -8 3 -5 6 6 6 11 1 17 -2 13 -5z m1450 -10 c-3
-3 -12 -4 -19 -1 -8 3 -5 6 6 6 11 1 17 -2 13 -5z m53 -14 c0 -11 -7 -20 -15
-20 -8 0 -15 9 -15 20 0 11 7 20 15 20 8 0 15 -9 15 -20z m-727 -17 c-13 -2
-33 -2 -45 0 -13 2 -3 4 22 4 25 0 35 -2 23 -4z m674 1 c-3 -3 -12 -4 -19 -1
-8 3 -5 6 6 6 11 1 17 -2 13 -5z m-639 -21 c-15 -2 -42 -2 -60 0 -18 2 -6 4
27 4 33 0 48 -2 33 -4z m809 -9 c-3 -3 -12 -4 -19 -1 -8 3 -5 6 6 6 11 1 17
-2 13 -5z m-837 -14 c0 -5 -13 -10 -30 -10 -16 0 -30 5 -30 10 0 6 14 10 30
10 17 0 30 -4 30 -10z m356 -10 c8 0 15 -8 15 -17 1 -17 2 -17 6 0 5 21 23 23
23 2 0 -37 -87 -84 -105 -55 -3 6 -11 10 -17 10 -7 0 -6 -6 2 -15 7 -9 29 -15
53 -15 34 0 46 6 78 40 21 22 42 40 46 40 4 0 1 -5 -7 -10 -13 -8 -12 -10 3
-10 9 0 17 -4 17 -10 0 -5 7 -6 17 -3 11 4 14 3 9 -5 -4 -8 0 -12 11 -12 17
-1 17 -1 0 -14 -32 -25 -133 -39 -227 -33 -76 6 -90 4 -90 -8 0 -8 -9 -15 -20
-15 -16 0 -20 -7 -20 -30 0 -16 -5 -30 -11 -30 -5 0 -8 4 -4 10 3 5 -4 19 -16
31 l-22 22 21 -5 c12 -4 20 -2 17 3 -8 12 23 57 43 63 10 3 29 17 45 31 23 22
28 23 33 11 9 -22 24 -20 24 3 0 20 24 32 48 25 8 -2 20 -4 28 -4z m-328 -17
c-15 -2 -42 -2 -60 0 -18 2 -6 4 27 4 33 0 48 -2 33 -4z m682 -13 c0 -5 -5
-10 -11 -10 -5 0 -7 5 -4 10 3 6 8 10 11 10 2 0 4 -4 4 -10z m-682 -7 c-15 -2
-42 -2 -60 0 -18 2 -6 4 27 4 33 0 48 -2 33 -4z m639 1 c-3 -3 -12 -4 -19 -1
-8 3 -5 6 6 6 11 1 17 -2 13 -5z m-1377 -31 c2 -2 -13 -3 -34 -1 -20 1 -39 5
-42 9 -4 7 68 0 76 -8z m708 7 c-10 -6 -25 -7 -40 -1 -20 9 -18 10 17 10 31 0
36 -2 23 -9z m712 0 c0 -5 -5 -10 -11 -10 -5 0 -7 5 -4 10 3 6 8 10 11 10 2 0
4 -4 4 -10z m80 -37 c0 -20 -3 -24 -11 -16 -7 7 -9 19 -6 27 10 24 17 19 17
-11z m-737 10 c-24 -2 -62 -2 -85 0 -24 2 -5 4 42 4 47 0 66 -2 43 -4z m659
-26 c3 -17 0 -23 -14 -23 -12 0 -18 8 -18 23 0 13 6 23 14 23 7 0 16 -10 18
-23z m-695 6 c-20 -2 -52 -2 -70 0 -17 2 0 4 38 4 39 0 53 -2 32 -4z m733 -58
c0 -30 -4 -55 -10 -55 -5 0 -10 25 -10 55 0 30 5 55 10 55 6 0 10 -25 10 -55z
m-1557 28 c-7 -2 -19 -2 -25 0 -7 3 -2 5 12 5 14 0 19 -2 13 -5z m855 0 c-26
-2 -71 -2 -100 0 -29 2 -8 3 47 3 55 0 79 -1 53 -3z m742 -19 c0 -14 -4 -23
-10 -19 -5 3 -10 15 -10 26 0 10 5 19 10 19 6 0 10 -12 10 -26z m-614 -15 c-3
-17 -6 -89 -6 -160 0 -79 -4 -129 -10 -129 -6 0 -10 45 -10 114 0 130 8 206
23 206 5 0 7 -13 3 -31z m-208 14 c-16 -2 -40 -2 -55 0 -16 2 -3 4 27 4 30 0
43 -2 28 -4z m135 -369 c-1 -207 -5 -379 -8 -382 -3 -3 -5 163 -5 370 0 317 3
388 15 388 0 0 0 -169 -2 -376z m144 254 c-2 -24 -4 -5 -4 42 0 47 2 66 4 43
2 -24 2 -62 0 -85z m-175 -70 l-5 -178 -23 0 c-24 0 -24 0 -24 123 0 142 7
197 26 197 10 0 11 -7 3 -28 -5 -16 -8 -86 -6 -158 l3 -129 2 132 c1 75 6 135
12 138 6 3 10 17 10 31 0 24 -1 24 -95 24 -55 0 -95 4 -95 10 0 6 36 7 95 3
75 -5 95 -3 95 7 0 7 2 11 4 9 2 -2 1 -84 -2 -181z m445 139 c2 -19 0 -38 -6
-42 -7 -4 -11 10 -11 41 0 53 10 53 17 1z m-208 1 c1 30 21 28 21 -3 0 -14 -4
-25 -10 -25 -5 0 -10 -11 -10 -25 0 -14 -4 -25 -10 -25 -6 0 -9 25 -9 58 1 47
3 52 9 27 6 -24 8 -26 9 -7z m38 -15 c-3 -10 -5 -2 -5 17 0 19 2 27 5 18 2
-10 2 -26 0 -35z m33 -23 c0 -40 -4 -70 -10 -70 -11 0 -14 123 -3 133 12 13
13 7 13 -63z m100 -50 c0 -73 -4 -120 -10 -120 -6 0 -10 41 -10 104 0 94 5
136 16 136 2 0 4 -54 4 -120z m-30 39 c0 -33 -4 -59 -10 -59 -6 0 -10 29 -10
66 0 41 4 63 10 59 6 -3 10 -33 10 -66z m-440 41 c0 -10 -138 -6 -148 5 -3 3
29 5 71 5 43 0 77 -4 77 -10z m129 -155 c-1 -91 -6 -168 -10 -171 -5 -3 -9 71
-9 165 0 108 4 171 10 171 6 0 10 -60 9 -165z m-231 135 c9 0 12 -35 12 -140
0 -77 -3 -140 -7 -140 -5 0 -7 58 -5 130 2 86 0 130 -7 130 -7 0 -12 -48 -13
-132 -2 -129 -2 -130 -5 -30 -2 56 -8 102 -13 102 -6 0 -11 -45 -12 -102 -2
-89 -2 -93 -5 -30 -4 71 -23 104 -23 37 0 -18 -6 -38 -14 -42 -17 -10 -26 -71
-12 -77 6 -2 -5 -5 -24 -6 -29 -1 -32 -3 -15 -10 17 -7 17 -9 3 -9 -10 -1 -18
-8 -18 -16 0 -8 -5 -15 -11 -15 -8 0 -7 -6 2 -17 12 -14 12 -16 0 -8 -11 6
-13 4 -7 -10 7 -18 6 -18 -14 0 -15 13 -20 30 -20 64 0 38 13 71 77 189 67
126 79 143 97 138 12 -3 27 -6 34 -6z m102 -147 c0 -80 -3 -144 -6 -141 -3 4
-8 66 -11 140 -2 73 -7 135 -9 137 -2 2 -4 -57 -4 -132 0 -75 -3 -137 -7 -137
-5 0 -7 61 -5 135 2 88 -1 135 -7 135 -7 0 -12 -52 -14 -137 l-3 -138 -2 143
-2 142 35 0 35 0 0 -147z m837 105 c-3 -7 -5 -2 -5 12 0 14 2 19 5 13 2 -7 2
-19 0 -25z m-340 -10 c-3 -8 -6 -5 -6 6 -1 11 2 17 5 13 3 -3 4 -12 1 -19z
m-1367 2 c0 -5 -5 -10 -11 -10 -5 0 -7 5 -4 10 3 6 8 10 11 10 2 0 4 -4 4 -10z
m1170 -120 c0 -47 -4 -80 -10 -80 -6 0 -10 33 -10 80 0 47 4 80 10 80 6 0 10
-33 10 -80z m140 60 c0 -5 -4 -10 -10 -10 -5 0 -10 5 -10 10 0 6 5 10 10 10 6
0 10 -4 10 -10z m0 -35 c0 -8 -4 -15 -10 -15 -5 0 -10 7 -10 15 0 8 5 15 10
15 6 0 10 -7 10 -15z m397 -52 c-3 -10 -5 -4 -5 12 0 17 2 24 5 18 2 -7 2 -21
0 -30z m-1642 -23 c-11 -5 -29 -8 -40 -8 -16 0 -15 2 5 8 34 11 60 11 35 0z
m1271 -57 c-11 -11 -19 6 -11 24 8 17 8 17 12 0 3 -10 2 -21 -1 -24z m-306 -3
c0 -16 -4 -30 -10 -30 -5 0 -10 14 -10 30 0 17 5 30 10 30 6 0 10 -13 10 -30z
m-337 0 c3 -11 3 -20 1 -20 -2 0 -8 9 -14 20 -6 11 -7 20 -2 20 6 0 12 -9 15
-20z m477 -75 c0 -47 -4 -85 -9 -85 -9 0 -14 148 -5 162 11 18 14 4 14 -77z
m167 33 c-3 -7 -5 -2 -5 12 0 14 2 19 5 13 2 -7 2 -19 0 -25z m-439 15 c-10
-2 -28 -2 -40 0 -13 2 -5 4 17 4 22 1 32 -1 23 -4z m-181 -19 c-3 -3 -12 -4
-19 -1 -8 3 -5 6 6 6 11 1 17 -2 13 -5z m277 -186 c-2 -100 -6 -184 -9 -186
-3 -3 -5 81 -5 187 0 117 4 190 9 186 6 -3 8 -80 5 -187z m36 -3 c0 -117 -4
-185 -10 -185 -6 0 -10 68 -10 185 0 117 4 185 10 185 6 0 10 -68 10 -185z
m-1010 41 c0 -2 -7 -7 -16 -10 -8 -3 -12 -2 -9 4 6 10 25 14 25 6z m810 -71
l7 60 1 -62 c2 -66 -1 -71 -30 -49 -12 9 -18 26 -17 52 l2 39 7 -40 7 -40 3
50 4 50 5 -60 5 -60 6 60z m40 -16 c0 -33 -4 -59 -10 -59 -6 0 -10 29 -10 66
0 41 4 63 10 59 6 -3 10 -33 10 -66z m30 -4 c0 -43 -4 -75 -10 -75 -11 0 -13
91 -4 128 11 38 14 25 14 -53z m30 -10 c0 -47 -4 -85 -9 -85 -5 0 -7 15 -5 33
1 17 3 56 3 85 1 28 3 52 6 52 3 0 5 -38 5 -85z m240 -65 c0 -73 -4 -120 -10
-120 -6 0 -10 47 -10 120 0 73 4 120 10 120 6 0 10 -47 10 -120z m-404 60 c8
0 14 -4 14 -10 0 -12 -20 -13 -38 -1 -9 5 -11 17 -5 37 l8 29 3 -27 c2 -16 9
-28 18 -28z m84 -182 c0 -5 -11 -8 -24 -8 -14 0 -27 3 -29 8 -3 4 8 7 24 7 16
0 29 -3 29 -7z m60 -8 c0 -5 -4 -10 -9 -10 -5 0 -16 -3 -25 -6 -9 -3 -16 -1
-16 4 0 9 16 17 43 21 4 0 7 -3 7 -9z"/>
<path d="M782 1754 c-3 -70 -13 -115 -23 -108 -14 9 -10 -6 6 -22 8 -9 15 -26
15 -39 0 -18 -4 -23 -15 -19 -13 5 -15 -11 -13 -112 l2 -119 3 104 c3 78 7
107 19 115 12 9 14 34 11 131 -1 66 -4 97 -5 69z"/>
<path d="M803 1760 c0 -25 2 -35 4 -22 2 12 2 32 0 45 -2 12 -4 2 -4 -23z"/>
<path d="M818 1603 c-2 -109 0 -225 3 -258 3 -33 6 56 7 198 1 141 0 257 -3
257 -2 0 -6 -89 -7 -197z"/>
<path d="M1551 1718 c1 -46 4 -71 6 -55 2 15 9 27 14 27 5 0 9 25 9 55 0 42
-3 55 -15 55 -12 0 -15 -15 -14 -82z"/>
<path d="M1718 1708 c-3 -90 0 -117 9 -90 3 6 11 12 19 12 11 0 14 18 14 85 0
77 -2 85 -19 85 -18 0 -20 -9 -23 -92z"/>
<path d="M1780 900 c0 -626 3 -900 11 -900 7 0 10 173 8 565 -1 311 1 569 5
572 3 4 6 -251 6 -565 0 -375 3 -572 10 -572 10 0 12 212 10 958 -1 203 3 302
10 302 7 0 10 -201 10 -630 0 -447 3 -630 11 -630 8 0 10 150 8 519 -2 286 0
523 4 527 4 4 7 -230 7 -519 0 -484 1 -527 17 -527 14 0 15 13 10 122 -4 66
-7 471 -7 900 0 512 -3 778 -10 778 -6 0 -10 -125 -10 -356 0 -195 -4 -353 -8
-350 -5 3 -8 163 -6 356 2 214 -1 350 -7 350 -5 0 -9 -65 -9 -155 0 -97 -4
-155 -10 -155 -6 0 -10 58 -10 155 0 97 -4 155 -10 155 -6 0 -10 -113 -10
-320 0 -198 -4 -320 -10 -320 -6 0 -7 118 -3 320 5 240 3 320 -5 320 -9 0 -12
-224 -12 -900z m69 458 c1 -53 -3 -88 -9 -88 -6 0 -10 42 -9 108 0 69 3 100 9
87 5 -11 9 -59 9 -107z"/>
<path d="M1918 1333 c-2 -258 -2 -663 0 -900 2 -373 4 -433 17 -433 13 0 15
59 18 423 l2 422 3 -422 c1 -271 6 -423 12 -423 6 0 11 152 13 423 l2 422 3
-422 c1 -271 6 -423 12 -423 6 0 11 149 13 413 l2 412 3 -412 c1 -264 6 -413
12 -413 6 0 11 152 13 423 l2 422 3 -422 c1 -271 6 -423 12 -423 6 0 11 146
13 402 l2 403 3 -402 c1 -257 6 -403 12 -403 6 0 11 142 13 393 l2 392 3 -392
c1 -251 6 -393 12 -393 6 0 11 141 13 387 l2 388 3 -387 2 -388 25 0 25 0 3
373 2 372 3 -372 c1 -237 6 -373 12 -373 6 0 11 134 13 368 l2 367 3 -367 c1
-234 6 -368 12 -368 6 0 11 119 13 322 l2 323 3 -322 c1 -204 6 -323 12 -323
6 0 11 127 13 348 l2 347 3 -347 c2 -308 4 -348 18 -348 14 0 15 37 13 335 -1
184 1 338 4 342 4 3 7 -147 7 -335 0 -291 2 -342 14 -342 10 0 16 13 19 38 l4
37 1 -37 c2 -37 15 -50 25 -25 4 10 6 10 6 0 1 -7 12 -13 26 -13 l25 0 3 348
2 347 3 -347 2 -347 220 0 c158 0 220 3 220 12 0 8 3 8 12 -1 16 -16 48 -16
48 0 0 9 3 9 12 0 16 -16 52 -16 42 1 -6 9 -4 9 8 -1 11 -8 43 -12 97 -11 l81
2 0 247 0 248 -48 7 c-26 3 -54 11 -62 16 -15 10 -2 9 80 -7 29 -5 30 -4 30
30 0 25 -5 36 -15 37 -8 1 -19 3 -25 4 -5 1 -26 3 -45 4 -19 0 -35 5 -35 11 0
5 6 8 13 6 6 -3 33 -7 60 -10 l47 -6 -2 78 -3 77 -55 6 -55 6 58 1 c57 2 78
17 35 25 l-23 4 23 2 c12 0 22 8 22 15 0 11 -15 16 -52 19 l-53 3 53 2 c45 2
53 5 50 20 -3 13 -12 16 -46 14 -27 -1 -41 1 -37 8 3 5 24 10 45 10 l39 0 0
99 0 100 -47 4 -47 3 48 2 c43 2 47 4 47 27 0 24 -3 25 -57 26 l-58 2 58 10
58 10 -3 41 c-2 30 -7 40 -18 38 -11 -3 -11 1 3 16 21 22 24 117 5 125 -10 4
-10 8 -1 14 8 5 11 56 11 162 1 166 5 155 -53 137 -11 -3 -3 2 17 12 34 15 38
21 38 55 0 29 -4 37 -18 37 -10 0 -23 -5 -30 -12 -9 -9 -12 -9 -12 1 0 16
-211 14 -222 -3 -6 -8 -8 -7 -8 2 0 8 -20 12 -64 12 -42 0 -66 -4 -69 -12 -4
-10 -6 -10 -6 0 -1 6 -10 12 -21 12 -11 0 -20 -6 -20 -12 0 -10 -2 -10 -8 0
-6 9 -34 12 -100 10 -90 -3 -92 -3 -93 -28 l-1 -25 -7 24 c-12 44 -27 33 -30
-21 -3 -71 -11 -75 -11 -5 0 31 -4 57 -10 57 -6 0 -11 -106 -13 -282 l-2 -283
-3 283 c-1 180 -6 282 -12 282 -6 0 -10 -80 -10 -220 0 -140 -4 -220 -10 -220
-6 0 -9 3 -9 8 1 4 1 103 0 220 -1 138 -5 212 -11 212 -7 0 -9 -71 -6 -215 2
-121 0 -215 -5 -215 -5 0 -9 97 -9 215 0 134 -4 215 -10 215 -6 0 -11 -99 -13
-262 l-2 -263 -3 263 c-1 166 -6 262 -12 262 -6 0 -10 -93 -10 -260 0 -178 -3
-260 -11 -260 -7 0 -9 79 -6 260 3 212 1 260 -9 260 -11 0 -14 -54 -17 -272
l-2 -273 -3 273 c-1 170 -6 272 -12 272 -6 0 -11 -102 -13 -272 l-2 -273 -3
273 c-1 170 -6 272 -12 272 -6 0 -11 -104 -13 -277 l-2 -278 -3 278 c-1 173
-6 277 -12 277 -6 0 -11 -104 -13 -277 l-2 -278 -3 278 c-1 173 -6 277 -12
277 -6 0 -11 -104 -13 -277 l-2 -278 -3 278 c-1 173 -6 277 -12 277 -6 0 -11
-109 -13 -292 l-2 -293 -3 293 c-1 183 -6 292 -12 292 -6 0 -11 -107 -13 -287
l-2 -288 -3 288 c-1 180 -6 287 -12 287 -6 0 -11 -109 -13 -292 l-2 -293 -3
293 c-1 183 -6 292 -12 292 -6 0 -11 -112 -13 -302 l-2 -303 -3 303 c-1 190
-6 302 -12 302 -6 0 -11 -112 -13 -302 l-2 -303 -3 303 c-1 190 -6 302 -12
302 -6 0 -11 -117 -13 -317 l-2 -318 -3 318 c-1 203 -6 317 -12 317 -6 0 -10
-130 -10 -370 0 -203 -3 -370 -7 -370 -8 0 -9 17 -11 458 -1 176 -6 282 -12
282 -6 0 -11 -170 -12 -467z m1067 447 c-3 -5 -11 -10 -16 -10 -6 0 -7 5 -4
10 3 6 11 10 16 10 6 0 7 -4 4 -10z m45 6 c0 -3 -4 -8 -10 -11 -5 -3 -10 -1
-10 4 0 6 5 11 10 11 6 0 10 -2 10 -4z m-140 -15 c0 -5 -10 -11 -22 -14 -22
-6 -22 -6 -4 8 23 17 26 18 26 6z m276 -6 c-20 -15 -36 -19 -36 -10 0 5 38 23
50 24 3 0 -4 -6 -14 -14z m-231 -5 c-3 -5 -11 -10 -16 -10 -6 0 -7 5 -4 10 3
6 11 10 16 10 6 0 7 -4 4 -10z m-45 -19 c0 -5 -10 -11 -22 -14 -22 -6 -22 -6
-4 8 23 17 26 18 26 6z m-363 -53 c-2 -13 -4 -5 -4 17 -1 22 1 32 4 23 2 -10
2 -28 0 -40z m298 42 c-3 -5 -12 -10 -18 -10 -7 0 -6 4 3 10 19 12 23 12 15 0z
m134 -4 c-2 -2 -15 -9 -29 -15 -24 -11 -24 -11 -6 3 16 13 49 24 35 12z m30
-20 c-5 -5 -130 -56 -137 -56 -14 0 12 14 65 36 53 22 82 30 72 20z m56 -6
c-3 -5 -14 -10 -23 -10 -15 0 -15 2 -2 10 20 13 33 13 25 0z m125 -20 c-8 -5
-19 -10 -25 -10 -5 0 -3 5 5 10 8 5 20 10 25 10 6 0 3 -5 -5 -10z m-683 -242
c-1 -46 -3 -9 -3 82 0 91 2 128 3 83 2 -46 2 -120 0 -165z m40 190 c-3 -7 -5
-2 -5 12 0 14 2 19 5 13 2 -7 2 -19 0 -25z m568 24 c-13 -11 -123 -52 -138
-51 -7 0 22 13 63 29 84 32 88 33 75 22z m-488 -39 c-3 -10 -5 -4 -5 12 0 17
2 24 5 18 2 -7 2 -21 0 -30z m223 18 c0 -5 -7 -11 -14 -14 -10 -4 -13 -1 -9 9
6 15 23 19 23 5z m110 -1 c0 -5 -5 -10 -11 -10 -5 0 -7 5 -4 10 3 6 8 10 11
10 2 0 4 -4 4 -10z m-293 -22 c-3 -8 -6 -5 -6 6 -1 11 2 17 5 13 3 -3 4 -12 1
-19z m518 2 c-3 -5 -10 -10 -16 -10 -5 0 -9 5 -9 10 0 6 7 10 16 10 8 0 12 -4
9 -10z m-55 -5 c0 -6 -70 -35 -84 -34 -6 0 9 9 34 19 53 22 50 21 50 15z
m-503 -37 c-3 -8 -6 -5 -6 6 -1 11 2 17 5 13 3 -3 4 -12 1 -19z m-40 -20 c-3
-7 -5 -2 -5 12 0 14 2 19 5 13 2 -7 2 -19 0 -25z m533 22 c0 -5 -10 -10 -22
-9 -22 0 -22 1 -3 9 11 5 21 9 23 9 1 1 2 -3 2 -9z m-573 -47 c-3 -10 -5 -4
-5 12 0 17 2 24 5 18 2 -7 2 -21 0 -30z m413 22 c0 -6 -26 -16 -70 -30 -35
-10 -16 7 23 22 37 13 47 15 47 8z m160 -5 c0 -5 -8 -10 -17 -10 -15 0 -16 2
-3 10 19 12 20 12 20 0z m-493 -77 c-2 -16 -4 -3 -4 27 0 30 2 43 4 28 2 -16
2 -40 0 -55z m438 67 c-3 -5 -14 -10 -23 -10 -15 0 -15 2 -2 10 20 13 33 13
25 0z m-215 -14 c0 -2 -7 -7 -16 -10 -8 -3 -12 -2 -9 4 6 10 25 14 25 6z m-5
-26 c-3 -5 -12 -10 -18 -10 -7 0 -6 4 3 10 19 12 23 12 15 0z m110 0 c-3 -5
-11 -10 -16 -10 -6 0 -7 5 -4 10 3 6 11 10 16 10 6 0 7 -4 4 -10z m50 -10 c-3
-5 -11 -10 -16 -10 -6 0 -7 5 -4 10 3 6 11 10 16 10 6 0 7 -4 4 -10z m-418
-57 c-3 -10 -5 -4 -5 12 0 17 2 24 5 18 2 -7 2 -21 0 -30z m213 33 c0 -3 -4
-8 -10 -11 -5 -3 -10 -1 -10 4 0 6 5 11 10 11 6 0 10 -2 10 -4z m-253 -68 c-2
-13 -4 -3 -4 22 0 25 2 35 4 23 2 -13 2 -33 0 -45z m213 58 c0 -3 -4 -8 -10
-11 -5 -3 -10 -1 -10 4 0 6 5 11 10 11 6 0 10 -2 10 -4z m147 -12 c-3 -3 -12
-4 -19 -1 -8 3 -5 6 6 6 11 1 17 -2 13 -5z m-280 -26 c-3 -8 -6 -5 -6 6 -1 11
2 17 5 13 3 -3 4 -12 1 -19z m233 -8 c0 -5 -5 -10 -11 -10 -5 0 -7 5 -4 10 3
6 8 10 11 10 2 0 4 -4 4 -10z m330 -10 c0 -5 -7 -10 -16 -10 -8 0 -12 5 -9 10
3 6 10 10 16 10 5 0 9 -4 9 -10z m-30 -40 c-33 -11 -69 -12 -53 -2 7 4 27 8
45 9 30 1 31 1 8 -7z m-740 -25 c0 -14 -4 -25 -10 -25 -5 0 -10 11 -10 25 0
14 5 25 10 25 6 0 10 -11 10 -25z m650 16 c-22 -13 -152 -34 -175 -29 -11 2
23 11 75 20 116 19 119 20 100 9z m-621 -38 c-1 -37 -1 -37 -8 -8 -7 28 -5 45
5 45 2 0 3 -17 3 -37z m351 17 c0 -5 -4 -10 -10 -10 -5 0 -10 5 -10 10 0 6 5
10 10 10 6 0 10 -4 10 -10z m367 4 c-3 -3 -12 -4 -19 -1 -8 3 -5 6 6 6 11 1
17 -2 13 -5z m-612 -14 c3 -5 1 -10 -4 -10 -6 0 -11 5 -11 10 0 6 2 10 4 10 3
0 8 -4 11 -10z m308 -7 c-7 -2 -19 -2 -25 0 -7 3 -2 5 12 5 14 0 19 -2 13 -5z
m-446 -33 c-1 -11 -5 -20 -9 -20 -3 0 -6 9 -5 20 1 11 5 20 9 20 3 0 6 -9 5
-20z m633 0 c0 -5 -8 -10 -17 -10 -15 0 -16 2 -3 10 19 12 20 12 20 0z m53 3
c-7 -2 -21 -2 -30 0 -10 3 -4 5 12 5 17 0 24 -2 18 -5z m-656 -35 c-3 -8 -6
-5 -6 6 -1 11 2 17 5 13 3 -3 4 -12 1 -19z m731 7 c3 -3 -7 -5 -21 -5 -15 0
-27 4 -27 9 0 10 38 7 48 -4z m-78 -5 c0 -5 -4 -10 -10 -10 -5 0 -10 5 -10 10
0 6 5 10 10 10 6 0 10 -4 10 -10z m-30 -4 c0 -2 -7 -6 -15 -10 -8 -3 -15 -1
-15 4 0 6 7 10 15 10 8 0 15 -2 15 -4z m-100 -14 c0 -4 -19 -9 -42 -9 l-43 -1
35 8 c51 11 50 11 50 2z m-750 -6 c0 -3 -4 -8 -10 -11 -5 -3 -10 -1 -10 4 0 6
5 11 10 11 6 0 10 -2 10 -4z m520 -56 c0 -5 -5 -10 -11 -10 -5 0 -7 5 -4 10 3
6 8 10 11 10 2 0 4 -4 4 -10z m-695 -10 c3 -5 1 -10 -4 -10 -6 0 -11 5 -11 10
0 6 2 10 4 10 3 0 8 -4 11 -10z m910 -1 c-51 -10 -92 -10 -50 1 17 4 44 8 60
8 25 0 24 -2 -10 -9z m-948 -21 c-3 -8 -6 -5 -6 6 -1 11 2 17 5 13 3 -3 4 -12
1 -19z m443 2 c0 -5 -5 -10 -11 -10 -5 0 -7 5 -4 10 3 6 8 10 11 10 2 0 4 -4
4 -10z m590 0 c0 -5 -4 -10 -10 -10 -5 0 -10 5 -10 10 0 6 5 10 10 10 6 0 10
-4 10 -10z m-856 -15 c-4 -8 -8 -15 -10 -15 -2 0 -4 7 -4 15 0 8 4 15 10 15 5
0 7 -7 4 -15z m193 -17 c-3 -7 -5 -2 -5 12 0 14 2 19 5 13 2 -7 2 -19 0 -25z
m416 25 c-13 -2 -33 -2 -45 0 -13 2 -3 4 22 4 25 0 35 -2 23 -4z m197 -3 c-8
-5 -37 -9 -65 -8 l-50 1 55 7 c30 4 60 7 65 8 6 1 3 -3 -5 -8z m-643 -32 c-3
-8 -6 -5 -6 6 -1 11 2 17 5 13 3 -3 4 -12 1 -19z m450 6 c-3 -3 -12 -4 -19 -1
-8 3 -5 6 6 6 11 1 17 -2 13 -5z m-717 -18 c0 -3 -4 -8 -10 -11 -5 -3 -10 -1
-10 4 0 6 5 11 10 11 6 0 10 -2 10 -4z m815 -6 c3 -5 -1 -10 -10 -10 -9 0 -13
5 -10 10 3 6 8 10 10 10 2 0 7 -4 10 -10z m-178 -16 c-3 -3 -12 -4 -19 -1 -8
3 -5 6 6 6 11 1 17 -2 13 -5z m-738 -56 c-2 -48 -2 -49 -8 -18 -6 33 -3 70 5
70 2 0 3 -24 3 -52z m28 -25 c-2 -16 -4 -3 -4 27 0 30 2 43 4 28 2 -16 2 -40
0 -55z m1005 69 c-8 -6 -10 -23 -6 -56 3 -31 2 -46 -5 -42 -6 4 -7 14 -4 23 4
9 2 14 -3 10 -6 -3 -8 8 -6 29 5 41 -5 44 -19 7 -7 -19 -13 -23 -18 -15 -4 7
-15 10 -23 7 -10 -4 -17 1 -21 14 -6 24 -4 25 22 9 15 -9 22 -8 36 5 9 9 26
17 38 17 15 0 18 -3 9 -8z m47 0 c-9 -4 -15 -15 -13 -24 1 -10 -2 -20 -7 -24
-5 -3 -9 9 -9 25 0 26 4 31 23 30 17 0 18 -2 6 -7z m35 -25 c-7 -18 -24 -23
-24 -8 0 22 13 42 22 33 5 -5 6 -16 2 -25z m-834 19 c0 -3 -4 -8 -10 -11 -5
-3 -10 -1 -10 4 0 6 5 11 10 11 6 0 10 -2 10 -4z m100 0 c0 -3 -4 -8 -10 -11
-5 -3 -10 -1 -10 4 0 6 5 11 10 11 6 0 10 -2 10 -4z m47 -43 c-3 -10 -5 -2 -5
17 0 19 2 27 5 18 2 -10 2 -26 0 -35z m380 2 c15 24 16 15 3 -19 -15 -40 -26
-31 -27 22 -1 43 0 44 6 12 6 -32 7 -34 18 -15z m75 20 c10 -32 9 -77 -2 -70
-6 3 -7 17 -4 31 4 14 2 24 -5 24 -6 0 -11 7 -11 15 0 8 -4 15 -10 15 -5 0 -7
-7 -4 -15 4 -8 1 -15 -5 -15 -6 0 -11 9 -11 21 0 27 42 22 52 -6z m-795 -5 c1
-11 -2 -20 -7 -20 -6 0 -7 17 -1 38 3 8 7 -1 8 -18z m80 -27 c-3 -10 -5 -2 -5
17 0 19 2 27 5 18 2 -10 2 -26 0 -35z m373 37 c0 -5 -4 -10 -10 -10 -5 0 -10
5 -10 10 0 6 5 10 10 10 6 0 10 -4 10 -10z m30 0 c0 -5 -5 -10 -11 -10 -5 0
-7 5 -4 10 3 6 8 10 11 10 2 0 4 -4 4 -10z m27 -17 c1 -24 0 -25 -6 -8 -7 17
-6 35 2 35 2 0 3 -12 4 -27z m40 5 c-3 -8 -6 -5 -6 6 -1 11 2 17 5 13 3 -3 4
-12 1 -19z m30 -10 c-3 -7 -5 -2 -5 12 0 14 2 19 5 13 2 -7 2 -19 0 -25z m50
10 c-3 -8 -6 -5 -6 6 -1 11 2 17 5 13 3 -3 4 -12 1 -19z m33 7 c0 -8 -4 -15
-10 -15 -5 0 -10 7 -10 15 0 8 5 15 10 15 6 0 10 -7 10 -15z m-413 -22 c-16
-16 -17 -16 -17 0 0 10 5 15 10 12 6 -3 10 -1 10 6 0 7 3 9 7 5 4 -3 -1 -14
-10 -23z m120 5 c-3 -8 -6 -5 -6 6 -1 11 2 17 5 13 3 -3 4 -12 1 -19z m-207
-4 c0 -8 -5 -12 -10 -9 -6 4 -8 11 -5 16 9 14 15 11 15 -7z m60 -1 c0 -7 -6
-10 -14 -7 -8 3 -16 -2 -19 -13 -3 -13 -5 -11 -6 7 -1 19 4 26 19 26 11 0 20
-6 20 -13z m70 7 c0 -5 -5 -10 -11 -10 -5 0 -7 5 -4 10 3 6 8 10 11 10 2 0 4
-4 4 -10z m120 -10 c0 -5 -2 -10 -4 -10 -3 0 -8 5 -11 10 -3 6 -1 10 4 10 6 0
11 -4 11 -10z m-389 -23 c-10 -9 -11 -8 -5 6 3 10 9 15 12 12 3 -3 0 -11 -7
-18z m459 13 c0 -5 -5 -10 -11 -10 -5 0 -7 5 -4 10 3 6 8 10 11 10 2 0 4 -4 4
-10z m377 -27 c-3 -10 -5 -4 -5 12 0 17 2 24 5 18 2 -7 2 -21 0 -30z m173 12
c0 -14 -4 -25 -10 -25 -5 0 -10 11 -10 25 0 14 5 25 10 25 6 0 10 -11 10 -25z
m-353 -17 c-3 -7 -5 -2 -5 12 0 14 2 19 5 13 2 -7 2 -19 0 -25z m89 21 c3 -6
0 -15 -7 -20 -22 -14 -29 -11 -29 11 0 21 24 27 36 9z m67 -9 c-3 -11 -7 -20
-9 -20 -2 0 -4 9 -4 20 0 11 4 20 9 20 5 0 7 -9 4 -20z m64 -12 c-3 -7 -5 -2
-5 12 0 14 2 19 5 13 2 -7 2 -19 0 -25z m86 12 c-3 -11 -7 -20 -9 -20 -2 0 -4
9 -4 20 0 11 4 20 9 20 5 0 7 -9 4 -20z m90 7 c4 14 5 14 6 -4 1 -17 -5 -23
-19 -23 -14 0 -20 7 -20 23 1 21 1 21 14 4 14 -18 14 -18 19 0z m-736 -19 c-3
-8 -6 -5 -6 6 -1 11 2 17 5 13 3 -3 4 -12 1 -19z m-47 2 c0 -5 -5 -10 -11 -10
-5 0 -7 5 -4 10 3 6 8 10 11 10 2 0 4 -4 4 -10z m120 -10 c0 -5 -2 -10 -4 -10
-3 0 -8 5 -11 10 -3 6 -1 10 4 10 6 0 11 -4 11 -10z m40 6 c0 -3 -4 -8 -10
-11 -5 -3 -10 -1 -10 4 0 6 5 11 10 11 6 0 10 -2 10 -4z m30 -6 c0 -5 -4 -10
-10 -10 -5 0 -10 5 -10 10 0 6 5 10 10 10 6 0 10 -4 10 -10z m75 0 c3 -5 1
-10 -4 -10 -6 0 -11 5 -11 10 0 6 2 10 4 10 3 0 8 -4 11 -10z m282 -17 c-8 -7
-259 -5 -266 3 -2 2 58 4 134 4 76 0 135 -3 132 -7z m59 -2 c-3 -5 -15 -7 -26
-4 -28 7 -25 13 6 13 14 0 23 -4 20 -9z m124 -1 c0 -5 -5 -10 -11 -10 -5 0 -7
5 -4 10 3 6 8 10 11 10 2 0 4 -4 4 -10z m-1111 -37 c-1 -37 -1 -37 -8 -8 -7
28 -5 45 5 45 2 0 3 -17 3 -37z m538 31 c-3 -3 -12 -4 -19 -1 -8 3 -5 6 6 6
11 1 17 -2 13 -5z m46 -1 c-7 -2 -19 -2 -25 0 -7 3 -2 5 12 5 14 0 19 -2 13
-5z m494 1 c-3 -3 -12 -4 -19 -1 -8 3 -5 6 6 6 11 1 17 -2 13 -5z m-927 -30
c0 -8 -5 -12 -10 -9 -6 4 -8 11 -5 16 9 14 15 11 15 -7z m-123 -26 c-3 -7 -5
-2 -5 12 0 14 2 19 5 13 2 -7 2 -19 0 -25z m213 22 c0 -5 -2 -10 -4 -10 -3 0
-8 5 -11 10 -3 6 -1 10 4 10 6 0 11 -4 11 -10z m580 -12 c0 -11 -22 -10 -39 1
-10 7 -7 9 12 8 15 -1 27 -5 27 -9z m133 -5 c-18 -2 -48 -2 -65 0 -18 2 -4 4
32 4 36 0 50 -2 33 -4z m-776 -40 c-3 -10 -5 -4 -5 12 0 17 2 24 5 18 2 -7 2
-21 0 -30z m363 27 c0 -5 -2 -10 -4 -10 -3 0 -8 5 -11 10 -3 6 -1 10 4 10 6 0
11 -4 11 -10z m-423 -32 c-3 -8 -6 -5 -6 6 -1 11 2 17 5 13 3 -3 4 -12 1 -19z
m323 12 c0 -5 -5 -10 -11 -10 -5 0 -7 5 -4 10 3 6 8 10 11 10 2 0 4 -4 4 -10z
m648 3 c-16 -2 -40 -2 -55 0 -16 2 -3 4 27 4 30 0 43 -2 28 -4z m-189 -19 c8
-8 -114 -2 -139 6 -15 5 7 6 55 3 44 -3 82 -7 84 -9z m-659 -4 c0 -5 -5 -10
-11 -10 -5 0 -7 5 -4 10 3 6 8 10 11 10 2 0 4 -4 4 -10z m340 0 c0 -5 -2 -10
-4 -10 -3 0 -8 5 -11 10 -3 6 -1 10 4 10 6 0 11 -4 11 -10z m530 -10 c65 -8
59 -8 -45 -5 -66 3 -128 5 -137 5 -10 0 -18 4 -18 8 0 9 82 5 200 -8z m-190
-19 c0 -4 -11 -6 -25 -3 -14 2 -25 6 -25 8 0 2 11 4 25 4 14 0 25 -4 25 -9z
m63 -8 c-7 -2 -19 -2 -25 0 -7 3 -2 5 12 5 14 0 19 -2 13 -5z m-573 -7 c0 -3
-4 -8 -10 -11 -5 -3 -10 -1 -10 4 0 6 5 11 10 11 6 0 10 -2 10 -4z m673 -3
c-7 -2 -19 -2 -25 0 -7 3 -2 5 12 5 14 0 19 -2 13 -5z m-875 -340 l-3 -338 -5
330 c-5 316 -4 345 6 345 2 0 3 -152 2 -337z m745 320 c-7 -2 -19 -2 -25 0 -7
3 -2 5 12 5 14 0 19 -2 13 -5z m97 -9 c0 -2 -9 -4 -20 -4 -11 0 -20 4 -20 9 0
5 9 7 20 4 11 -3 20 -7 20 -9z m50 -4 c0 -5 -4 -10 -10 -10 -5 0 -10 5 -10 10
0 6 5 10 10 10 6 0 10 -4 10 -10z m-803 -62 c-2 -13 -4 -3 -4 22 0 25 2 35 4
23 2 -13 2 -33 0 -45z m933 48 c0 -3 -4 -8 -10 -11 -5 -3 -10 -1 -10 4 0 6 5
11 10 11 6 0 10 -2 10 -4z m-860 -16 c0 -5 -2 -10 -4 -10 -3 0 -8 5 -11 10 -3
6 -1 10 4 10 6 0 11 -4 11 -10z m70 -40 c0 -10 -5 -22 -10 -25 -6 -4 -10 5 -8
24 2 32 18 33 18 1z m170 15 c0 -8 -4 -15 -10 -15 -5 0 -7 7 -4 15 4 8 8 15
10 15 2 0 4 -7 4 -15z m-43 -17 c-3 -8 -6 -5 -6 6 -1 11 2 17 5 13 3 -3 4 -12
1 -19z m-170 -425 c-1 -81 -3 -18 -3 142 0 160 2 226 3 148 2 -78 2 -208 0
-290z m70 385 c-3 -7 -5 -2 -5 12 0 14 2 19 5 13 2 -7 2 -19 0 -25z m723 11
c17 -9 -51 0 -90 13 -16 5 -7 6 25 2 28 -3 57 -10 65 -15z m-114 -17 c-10 -2
-22 0 -28 6 -6 6 0 7 19 4 21 -5 23 -7 9 -10z m-637 -234 c-1 -152 -4 -216 -9
-183 -12 76 -12 415 0 415 6 0 10 -83 9 -232z m88 140 c-2 -18 -4 -4 -4 32 0
36 2 50 4 33 2 -18 2 -48 0 -65z m40 20 c-2 -13 -4 -3 -4 22 0 25 2 35 4 23 2
-13 2 -33 0 -45z m83 52 c0 -5 -5 -10 -11 -10 -5 0 -7 5 -4 10 3 6 8 10 11 10
2 0 4 -4 4 -10z m160 0 c11 -7 5 -8 -20 -4 -43 8 -51 14 -19 14 13 0 31 -5 39
-10z m-343 -312 c-1 -57 -3 -11 -3 102 0 113 2 159 3 103 2 -57 2 -149 0 -205z
m513 294 c0 -13 -12 -22 -22 -16 -10 6 -1 24 13 24 5 0 9 -4 9 -8z m-250 -12
c0 -5 -2 -10 -4 -10 -3 0 -8 5 -11 10 -3 6 -1 10 4 10 6 0 11 -4 11 -10z m45
0 c3 -5 1 -10 -4 -10 -6 0 -11 5 -11 10 0 6 2 10 4 10 3 0 8 -4 11 -10z m-85
-20 c0 -5 -2 -10 -4 -10 -3 0 -8 5 -11 10 -3 6 -1 10 4 10 6 0 11 -4 11 -10z
m237 4 c-3 -3 -12 -4 -19 -1 -8 3 -5 6 6 6 11 1 17 -2 13 -5z m53 -16 c0 -4
-4 -8 -9 -8 -6 0 -12 4 -15 8 -3 5 1 9 9 9 8 0 15 -4 15 -9z m-413 -40 c-3 -8
-6 -5 -6 6 -1 11 2 17 5 13 3 -3 4 -12 1 -19z m413 12 c0 -5 -7 -7 -15 -4 -8
4 -15 8 -15 10 0 2 7 4 15 4 8 0 15 -4 15 -10z m-70 -10 c18 -12 2 -12 -25 0
-13 6 -15 9 -5 9 8 0 22 -4 30 -9z m-90 -15 c0 -8 -4 -15 -10 -15 -5 0 -10 7
-10 15 0 8 5 15 10 15 6 0 10 -7 10 -15z m317 9 c-3 -3 -12 -4 -19 -1 -8 3 -5
6 6 6 11 1 17 -2 13 -5z m-610 -201 c-2 -38 -3 -7 -3 67 0 74 1 105 3 68 2
-38 2 -98 0 -135z m500 191 c-3 -3 -12 -4 -19 -1 -8 3 -5 6 6 6 11 1 17 -2 13
-5z m-420 -56 c-3 -8 -6 -5 -6 6 -1 11 2 17 5 13 3 -3 4 -12 1 -19z m328 -38
c13 -5 14 -9 5 -9 -8 0 -24 4 -35 9 -13 5 -14 9 -5 9 8 0 24 -4 35 -9z m92
-40 c1 -13 -4 -20 -15 -19 -10 0 -12 3 -5 5 7 3 9 12 6 20 -3 8 -1 14 4 14 5
0 9 -9 10 -20z m48 0 c3 -5 -1 -10 -10 -10 -9 0 -13 5 -10 10 3 6 8 10 10 10
2 0 7 -4 10 -10z m-508 -32 c-3 -7 -5 -2 -5 12 0 14 2 19 5 13 2 -7 2 -19 0
-25z m40 -60 c-2 -13 -4 -3 -4 22 0 25 2 35 4 23 2 -13 2 -33 0 -45z m258 52
c3 -6 -1 -7 -9 -4 -18 7 -21 14 -7 14 6 0 13 -4 16 -10z m-298 -32 c-3 -8 -6
-5 -6 6 -1 11 2 17 5 13 3 -3 4 -12 1 -19z m401 -23 c0 -13 -4 -22 -9 -19 -5
3 -9 14 -9 25 0 10 4 19 9 19 5 0 9 -11 9 -25z m-48 5 c13 -8 13 -11 1 -22 -9
-8 -12 -9 -7 -1 3 6 -2 16 -11 22 -10 6 -13 10 -8 11 6 0 17 -5 25 -10z m-230
-20 c0 -5 -5 -10 -11 -10 -5 0 -7 5 -4 10 3 6 8 10 11 10 2 0 4 -4 4 -10z
m250 -60 c19 -11 31 -19 25 -19 -5 0 -26 8 -45 19 -19 11 -30 19 -25 19 6 0
26 -8 45 -19z m270 10 c8 -5 11 -10 5 -10 -5 0 -17 5 -25 10 -8 5 -10 10 -5
10 6 0 17 -5 25 -10z m9 -36 c13 -12 -8 -10 -29 2 l-25 15 25 -7 c14 -3 27 -8
29 -10z m-203 -10 c18 -14 18 -14 -6 -3 -31 14 -36 19 -24 19 6 0 19 -7 30
-16z m119 -2 c-3 -3 -11 0 -18 7 -9 10 -8 11 6 5 10 -3 15 -9 12 -12z m-270
-12 c3 -5 1 -10 -4 -10 -6 0 -11 5 -11 10 0 6 2 10 4 10 3 0 8 -4 11 -10z
m270 -10 c3 -6 -1 -7 -9 -4 -18 7 -21 14 -7 14 6 0 13 -4 16 -10z m-60 -10 c3
-6 -1 -7 -9 -4 -18 7 -21 14 -7 14 6 0 13 -4 16 -10z m-145 -10 c0 -5 -2 -10
-4 -10 -3 0 -8 5 -11 10 -3 6 -1 10 4 10 6 0 11 -4 11 -10z m150 -60 c0 -5 -2
-10 -4 -10 -3 0 -8 5 -11 10 -3 6 -1 10 4 10 6 0 11 -4 11 -10z"/>
<path d="M750 1710 c0 -11 2 -20 4 -20 2 0 6 9 9 20 3 11 1 20 -4 20 -5 0 -9
-9 -9 -20z"/>
<path d="M802 1650 c0 -14 2 -19 5 -12 2 6 2 18 0 25 -3 6 -5 1 -5 -13z"/>
<path d="M1581 1654 c0 -11 3 -14 6 -6 3 7 2 16 -1 19 -3 4 -6 -2 -5 -13z"/>
<path d="M750 1590 c0 -5 5 -10 11 -10 5 0 7 5 4 10 -3 6 -8 10 -11 10 -2 0
-4 -4 -4 -10z"/>
<path d="M771 1374 c0 -11 3 -14 6 -6 3 7 2 16 -1 19 -3 4 -6 -2 -5 -13z"/>
<path d="M781 1274 c0 -11 3 -14 6 -6 3 7 2 16 -1 19 -3 4 -6 -2 -5 -13z"/>
<path d="M1550 745 c0 -51 3 -65 15 -65 12 0 15 14 15 65 0 51 -3 65 -15 65
-12 0 -15 -14 -15 -65z"/>
<path d="M1546 655 c-3 -8 -1 -15 4 -15 6 0 10 7 10 15 0 8 -2 15 -4 15 -2 0
-6 -7 -10 -15z"/>
<path d="M1572 652 c4 -15 2 -22 -8 -22 -16 0 -21 -123 -16 -433 3 -188 4
-197 22 -197 19 0 20 9 20 330 0 234 -4 331 -12 336 -7 5 -9 0 -6 -14z m-5
-269 c-3 -10 -5 -2 -5 17 0 19 2 27 5 18 2 -10 2 -26 0 -35z"/>
</g>
</svg>
